<svg width="750" height="750" viewBox="0 0 750 750" fill="none" xmlns="http://www.w3.org/2000/svg">
<path d="M50 375C50 439.279 69.0609 502.114 104.772 555.56C140.484 609.006 191.242 650.662 250.628 675.261C310.014 699.859 375.36 706.295 438.404 693.755C501.448 681.215 559.357 650.262 604.81 604.81C650.262 559.357 681.215 501.448 693.755 438.404C706.295 375.36 699.859 310.014 675.261 250.628C650.662 191.242 609.006 140.484 555.56 104.772C502.114 69.0609 439.279 50 375 50C284.143 50.3418 196.935 85.7942 131.611 148.944L50 230.556" stroke="#09090B" stroke-width="100" stroke-linecap="round" stroke-linejoin="round"/>
<path d="M50 50V230.555H230.555" stroke="#09090B" stroke-width="100" stroke-linecap="round" stroke-linejoin="round"/>
<path d="M375 500C444.036 500 500 444.036 500 375C500 305.964 444.036 250 375 250C305.964 250 250 305.964 250 375C250 444.036 305.964 500 375 500Z" fill="#10B981"/>
</svg>
