<svg width="6500" height="1200" viewBox="0 0 6500 1200" fill="none" xmlns="http://www.w3.org/2000/svg">
<path d="M1343.25 854V344.909H1544.1C1582.55 344.909 1615.36 351.786 1642.54 365.541C1669.88 379.13 1690.68 398.437 1704.93 423.46C1719.35 448.318 1726.56 477.568 1726.56 511.209C1726.56 545.016 1719.27 574.099 1704.68 598.46C1690.1 622.655 1668.97 641.216 1641.29 654.142C1613.78 667.068 1580.47 673.531 1541.37 673.531H1406.88V587.026H1523.96C1544.51 587.026 1561.58 584.208 1575.17 578.574C1588.76 572.939 1598.87 564.488 1605.5 553.219C1612.29 541.95 1615.69 527.946 1615.69 511.209C1615.69 494.305 1612.29 480.053 1605.5 468.453C1598.87 456.853 1588.68 448.07 1574.92 442.104C1561.33 435.972 1544.18 432.906 1523.47 432.906H1450.88V854H1343.25ZM1618.18 622.324L1744.7 854H1625.88L1502.09 622.324H1618.18ZM1968.49 861.457C1929.21 861.457 1895.4 853.503 1867.07 837.594C1838.89 821.519 1817.18 798.815 1801.94 769.483C1786.69 739.985 1779.07 705.101 1779.07 664.831C1779.07 625.555 1786.69 591.086 1801.94 561.422C1817.18 531.758 1838.65 508.64 1866.32 492.068C1894.16 475.496 1926.81 467.21 1964.26 467.21C1989.45 467.21 2012.9 471.27 2034.61 479.391C2056.48 487.345 2075.54 499.36 2091.78 515.435C2108.19 531.509 2120.95 551.727 2130.06 576.088C2139.18 600.283 2143.74 628.621 2143.74 661.102V690.186H1821.33V624.561H2044.06C2044.06 609.315 2040.74 595.809 2034.11 584.043C2027.48 572.277 2018.29 563.079 2006.52 556.45C1994.92 549.656 1981.41 546.259 1966 546.259C1949.93 546.259 1935.67 549.987 1923.25 557.445C1910.98 564.736 1901.37 574.597 1894.41 587.026C1887.45 599.289 1883.89 612.961 1883.72 628.041V690.435C1883.72 709.327 1887.2 725.65 1894.16 739.405C1901.29 753.16 1911.31 763.766 1924.24 771.223C1937.17 778.68 1952.49 782.409 1970.23 782.409C1981.99 782.409 1992.76 780.752 2002.54 777.438C2012.32 774.123 2020.69 769.152 2027.65 762.523C2034.61 755.894 2039.91 747.774 2043.56 738.162L2141.5 744.625C2136.53 768.157 2126.33 788.706 2110.92 806.273C2095.68 823.673 2075.96 837.262 2051.76 847.04C2027.73 856.652 1999.97 861.457 1968.49 861.457ZM2415.93 472.182V551.727H2185.99V472.182H2415.93ZM2238.2 380.705H2344.09V736.67C2344.09 746.448 2345.58 754.071 2348.56 759.54C2351.55 764.843 2355.69 768.571 2360.99 770.726C2366.46 772.88 2372.76 773.957 2379.89 773.957C2384.86 773.957 2389.83 773.543 2394.8 772.714C2399.77 771.72 2403.58 770.974 2406.24 770.477L2422.89 849.277C2417.59 850.934 2410.13 852.84 2400.52 854.994C2390.91 857.314 2379.22 858.723 2365.47 859.22C2339.95 860.214 2317.58 856.817 2298.35 849.028C2279.29 841.24 2264.46 829.142 2253.86 812.736C2243.25 796.33 2238.03 775.615 2238.2 750.591V380.705ZM2729.76 691.429V472.182H2835.66V854H2733.99V784.646H2730.01C2721.39 807.018 2707.06 824.999 2687.01 838.588C2667.12 852.177 2642.84 858.972 2614.17 858.972C2588.65 858.972 2566.2 853.171 2546.81 841.571C2527.42 829.971 2512.25 813.482 2501.32 792.104C2490.55 770.726 2485.08 745.122 2484.91 715.293V472.182H2590.81V696.401C2590.97 718.938 2597.02 736.753 2608.95 749.845C2620.88 762.937 2636.88 769.483 2656.93 769.483C2669.69 769.483 2681.62 766.583 2692.72 760.783C2703.83 754.817 2712.78 746.034 2719.57 734.433C2726.53 722.833 2729.93 708.498 2729.76 691.429ZM2920.36 854V472.182H3023.02V538.801H3027C3033.96 515.103 3045.64 497.205 3062.05 485.108C3078.46 472.845 3097.35 466.713 3118.73 466.713C3124.03 466.713 3129.75 467.044 3135.88 467.707C3142.01 468.37 3147.4 469.282 3152.04 470.442V564.405C3147.06 562.913 3140.19 561.588 3131.4 560.428C3122.62 559.268 3114.58 558.688 3107.29 558.688C3091.71 558.688 3077.79 562.085 3065.53 568.879C3053.43 575.508 3043.82 584.788 3036.7 596.72C3029.74 608.652 3026.25 622.407 3026.25 637.984V854H2920.36ZM3312.68 633.261V854H3206.79V472.182H3307.71V539.547H3312.18C3320.64 517.34 3334.8 499.774 3354.69 486.848C3374.58 473.756 3398.69 467.21 3427.03 467.21C3453.54 467.21 3476.66 473.01 3496.38 484.611C3516.1 496.211 3531.43 512.783 3542.37 534.327C3553.31 555.705 3558.77 581.225 3558.77 610.889V854H3452.88V629.781C3453.05 606.415 3447.08 588.186 3434.98 575.094C3422.88 561.836 3406.23 555.207 3385.02 555.207C3370.77 555.207 3358.17 558.273 3347.23 564.405C3336.46 570.536 3328.01 579.485 3321.88 591.251C3315.91 602.852 3312.85 616.855 3312.68 633.261ZM4007.34 472.182V551.727H3777.4V472.182H4007.34ZM3829.6 380.705H3935.5V736.67C3935.5 746.448 3936.99 754.071 3939.97 759.54C3942.95 764.843 3947.1 768.571 3952.4 770.726C3957.87 772.88 3964.17 773.957 3971.29 773.957C3976.26 773.957 3981.24 773.543 3986.21 772.714C3991.18 771.72 3994.99 770.974 3997.64 770.477L4014.3 849.277C4008.99 850.934 4001.54 852.84 3991.92 854.994C3982.31 857.314 3970.63 858.723 3956.87 859.22C3931.35 860.214 3908.98 856.817 3889.76 849.028C3870.7 841.24 3855.87 829.142 3845.26 812.736C3834.66 796.33 3829.44 775.615 3829.6 750.591V380.705ZM4244.73 861.457C4206.12 861.457 4172.72 853.254 4144.55 836.848C4116.55 820.276 4094.92 797.241 4079.67 767.743C4064.43 738.079 4056.8 703.692 4056.8 664.582C4056.8 625.141 4064.43 590.671 4079.67 561.173C4094.92 531.509 4116.55 508.474 4144.55 492.068C4172.72 475.496 4206.12 467.21 4244.73 467.21C4283.34 467.21 4316.65 475.496 4344.66 492.068C4372.83 508.474 4394.54 531.509 4409.79 561.173C4425.03 590.671 4432.66 625.141 4432.66 664.582C4432.66 703.692 4425.03 738.079 4409.79 767.743C4394.54 797.241 4372.83 820.276 4344.66 836.848C4316.65 853.254 4283.34 861.457 4244.73 861.457ZM4245.23 779.426C4262.79 779.426 4277.46 774.455 4289.23 764.511C4300.99 754.402 4309.86 740.648 4315.82 723.247C4321.96 705.847 4325.02 686.043 4325.02 663.837C4325.02 641.63 4321.96 621.827 4315.82 604.426C4309.86 587.026 4300.99 573.271 4289.23 563.162C4277.46 553.053 4262.79 547.999 4245.23 547.999C4227.49 547.999 4212.58 553.053 4200.48 563.162C4188.55 573.271 4179.52 587.026 4173.39 604.426C4167.42 621.827 4164.44 641.63 4164.44 663.837C4164.44 686.043 4167.42 705.847 4173.39 723.247C4179.52 740.648 4188.55 754.402 4200.48 764.511C4212.58 774.455 4227.49 779.426 4245.23 779.426Z" fill="white"/>
<path d="M5091.33 344.909V854H4998.36L4776.88 533.581H4773.15V854H4665.51V344.909H4759.97L4979.72 665.08H4984.19V344.909H5091.33ZM5350.78 861.457C5312.17 861.457 5278.78 853.254 5250.61 836.848C5222.6 820.276 5200.97 797.241 5185.73 767.743C5170.48 738.079 5162.86 703.692 5162.86 664.582C5162.86 625.141 5170.48 590.671 5185.73 561.173C5200.97 531.509 5222.6 508.474 5250.61 492.068C5278.78 475.496 5312.17 467.21 5350.78 467.21C5389.4 467.21 5422.71 475.496 5450.71 492.068C5478.89 508.474 5500.6 531.509 5515.84 561.173C5531.09 590.671 5538.71 625.141 5538.71 664.582C5538.71 703.692 5531.09 738.079 5515.84 767.743C5500.6 797.241 5478.89 820.276 5450.71 836.848C5422.71 853.254 5389.4 861.457 5350.78 861.457ZM5351.28 779.426C5368.85 779.426 5383.51 774.455 5395.28 764.511C5407.05 754.402 5415.91 740.648 5421.88 723.247C5428.01 705.847 5431.08 686.043 5431.08 663.837C5431.08 641.63 5428.01 621.827 5421.88 604.426C5415.91 587.026 5407.05 573.271 5395.28 563.162C5383.51 553.053 5368.85 547.999 5351.28 547.999C5333.55 547.999 5318.63 553.053 5306.54 563.162C5294.61 573.271 5285.57 587.026 5279.44 604.426C5273.48 621.827 5270.49 641.63 5270.49 663.837C5270.49 686.043 5273.48 705.847 5279.44 723.247C5285.57 740.648 5294.61 754.402 5306.54 764.511C5318.63 774.455 5333.55 779.426 5351.28 779.426ZM5673.32 854L5569.41 472.182H5676.55L5735.71 728.716H5739.19L5800.84 472.182H5905.99L5968.63 727.224H5971.86L6030.03 472.182H6136.92L6033.26 854H5921.15L5855.53 613.872H5850.8L5785.18 854H5673.32Z" fill="#10B981"/>
<path d="M348 600C348 664.279 367.061 727.114 402.772 780.56C438.484 834.006 489.242 875.662 548.628 900.261C608.014 924.859 673.36 931.295 736.404 918.755C799.448 906.215 857.357 875.262 902.81 829.81C948.262 784.357 979.215 726.448 991.755 663.404C1004.3 600.36 997.859 535.014 973.261 475.628C948.662 416.242 907.006 365.484 853.56 329.772C800.114 294.061 737.279 275 673 275C582.143 275.342 494.935 310.794 429.611 373.944L348 455.556" stroke="white" stroke-width="100" stroke-linecap="round" stroke-linejoin="round"/>
<path d="M348 275V455.555H528.555" stroke="white" stroke-width="100" stroke-linecap="round" stroke-linejoin="round"/>
<path d="M673 663.477C708.057 663.477 736.477 635.057 736.477 600C736.477 564.943 708.057 536.523 673 536.523C637.943 536.523 609.523 564.943 609.523 600C609.523 635.057 637.943 663.477 673 663.477Z" fill="#10B981"/>
<path d="M348 600C348 664.279 367.061 727.114 402.772 780.56C438.484 834.006 489.242 875.662 548.628 900.261C608.014 924.859 673.36 931.295 736.404 918.755C799.448 906.215 857.357 875.262 902.81 829.81C948.262 784.357 979.215 726.448 991.755 663.404C1004.3 600.36 997.859 535.014 973.261 475.628C948.662 416.242 907.006 365.484 853.56 329.772C800.114 294.061 737.279 275 673 275C582.143 275.342 494.935 310.794 429.611 373.944L348 455.556" stroke="white" stroke-width="100" stroke-linecap="round" stroke-linejoin="round"/>
<path d="M348 275V455.555H528.555" stroke="white" stroke-width="100" stroke-linecap="round" stroke-linejoin="round"/>
<path d="M673 725C742.036 725 798 669.036 798 600C798 530.964 742.036 475 673 475C603.964 475 548 530.964 548 600C548 669.036 603.964 725 673 725Z" fill="#10B981"/>
</svg>
